<?xml version="1.0" encoding="iso-8859-1"?>
<!-- Generator: Adobe Illustrator 16.0.0, SVG Export Plug-In . SVG Version: 6.00 Build 0)  -->
<!DOCTYPE svg PUBLIC "-//W3C//DTD SVG 1.1//EN" "http://www.w3.org/Graphics/SVG/1.1/DTD/svg11.dtd">
<svg version="1.1" id="Capa_1" xmlns="http://www.w3.org/2000/svg" xmlns:xlink="http://www.w3.org/1999/xlink" x="0px" y="0px"
	 width="189.157px" height="189.157px" viewBox="0 0 189.157 189.157" style="enable-background:new 0 0 189.157 189.157;"
	 xml:space="preserve">
<g>
	<path d="M175.468,92.481c-6.1-13.824-16.479-24.238-28.427-29.434c-7.355-4.111-15.365-6.289-23.138-5.789
		c-0.143-0.579-0.274-1.151-0.328-1.695c0.122-0.83,0.226-1.661,0.31-2.493c0.48-1.13,1.508-2.126,3.457-2.931
		c3.552-1.468,6.85,0.761,9.475,2.756c2.73,2.075,5.596-1.334,5.137-3.948c-1.632-9.308,4.556-11.885,11.619-11.736
		c2.725,0.984,5.346,2.565,7.604,3.887c1.62,0.949,2.933-1.314,1.622-2.441c0.21,0.058,0.418,0.116,0.623,0.175
		c0.01,0.073,0.023,0.154,0.034,0.226c0.609,4.38,8.204,3.354,7.731-1.046c-1.612-15.015-6.738-30.785-22.051-36.465
		c-9.807-3.638-20.84-0.367-30.194,4.695C96.055,13.929,75.547,35.6,83.082,56.913c-5.224-2.934-10.864-4.554-16.622-5.049
		c-13.835-2.236-28.695,1.48-41.195,11.01c-17.756,13.537-25.859,43.333-5.17,57.536c0.538,0.599,1.091,1.194,1.677,1.787
		c0.712,0.72,1.646,0.538,2.222-0.022c0.964-0.291,1.723-1.34,0.987-2.301c-0.855-1.119-1.704-2.215-2.53-3.299
		c-8.456-18.232-4.792-36.324,12.264-48.94c16.866-12.475,41.264-12.937,54.713,4.375c-0.021,0.018-0.044,0.032-0.066,0.05
		c-0.763-0.235-1.538-0.419-2.316-0.576c-6.877-2.365-12.831,0.836-16.225,6.76c-1.034,0.111-2.018,0.284-2.943,0.524
		c-7.081,0.207-13.518,4.64-13.965,11.487c-2.146-1.552-4.565-2.508-7.062-1.84c-1.468,0.393-2.648,1.141-3.64,2.095
		c-3.85,2.008-5.202,5.915-5.113,9.934c-4.696-1.868-9.847-1.18-13.804,3.553c-4.605,5.504-3.397,14.11,4.117,15.676
		c0.362,0.076,0.708,0.022,1.013-0.105c0.762,0.506,1.837-0.404,1.628-1.303c-0.666-2.866-1.988-6.014-2.204-9.078
		c0.195-0.391,0.42-0.776,0.678-1.153c3.149-4.597,8.135-1.907,11.097,1.245c2.433,2.59,5.861-0.689,4.586-3.539
		c-1.428-3.186-1.94-7.631,1.296-9.941c3.008-2.148,6.419,2.258,8.878,3.487c0.534,0.267,1.104,0.296,1.629,0.177
		c1.765,0.44,3.925-1.601,2.607-3.342c-0.336-0.443-0.758-0.941-1.164-1.431c0.176-1.541,0.521-2.946,1.063-4.156
		c0.424-0.788,0.894-1.553,1.417-2.292c2.289-2.764,5.947-3.871,10.557-2.649c1.76,0.466,3.389-0.572,3.946-2.241
		c0.15-0.448,0.33-0.835,0.503-1.235c1.744-0.875,2.562-2.868,3.835-4.438c1.202-0.591,2.604-0.816,4.204-0.701
		C53.85,106.844,21.46,182.612,72.908,188.947c35.952,4.428,35.343-62.137,34.06-98.593c0.549,0.681,1.411,1.073,2.385,0.724
		c1.619-0.581,5.213-2.146,8.259-2.518c0.634,0.71,1.184,1.762,1.65,3.302c1.328,4.379,0.791,9.492-0.791,13.724
		c-0.232,0.625-0.176,1.168,0.038,1.619c-1.479,1.709-1.471,4.534,1.394,5.176c4.39,0.983,8.869,1.295,11.754,5.24
		c0.047,0.064,0.072,0.125,0.116,0.188c-1.875,2.446-4.423,4.679-5.448,5.59c-0.846,0.75-0.79,1.901-0.232,2.731
		c-0.458,0.158-0.901,0.297-1.306,0.41c-3.781,1.064-3.118,7.125,0.939,6.944c6.773-0.3,10.935,3.299,11.77,8.866
		c-0.763,1.24-1.565,2.377-2.17,3.259c-0.606,0.883,0.337,1.896,1.21,1.833c-1.503,2.25-0.229,6.373,3.031,6.033
		c5.133-0.536,9.723-1.654,13.812-3.23c9.621-2.08,18.501-7.714,23.584-16.125C184.561,121.547,180.996,105.01,175.468,92.481z
		 M82.925,95.723c2.21,1.863,4.126,4.054,5.655,6.496c-1.382,0.854-2.705,1.779-3.942,2.687c-2.1,1.54-5.034,3.705-6.56,6.293
		c-0.71-0.817-1.423-1.637-2.137-2.442C78.244,104.207,80.606,99.827,82.925,95.723z M72.24,116.407
		c1.312,0.644,2.563,1.397,3.749,2.315c0.094,0.391,0.445,0.668,0.82,0.686c1.308,1.227,2.336,2.854,3.533,4.213
		c-5.021,2.559-8.733,6.106-6.654,10.372c0.056,0.114,0.165,0.179,0.236,0.28c-0.03,0.057-0.069,0.113-0.098,0.171
		c-1.874-2.099-4.277-4.755-6.827-6.162C68.604,124.312,70.392,120.34,72.24,116.407z M64.357,135.316
		c2.109,1.376,4.18,2.809,6.129,4.402c1.612,1.318,3.089,2.744,4.488,4.281c0.579,0.637,1.043,1.305,1.498,1.965
		c-3.408,1.752-6.734,4.104-8.895,7.26c-0.334-0.244-0.652-0.51-0.996-0.739c-1.6-2.312-3.477-4.688-5.894-5.403
		C61.646,143.291,62.924,139.33,64.357,135.316z M64.241,177.969c-5.645-4.67-6.716-13.314-5.023-23.783
		c2.274,1.365,4.361,2.929,6.259,4.746c1.815,2.287,3.627,4.568,5.476,6.822c0.771,1.252,1.496,2.535,2.169,3.828
		c0.052,0.098,0.092,0.19,0.141,0.287C69.61,171.771,66.27,174.385,64.241,177.969z M70.782,181.18
		c-0.219-0.049-0.398-0.133-0.609-0.189c0.132-0.033,0.262-0.066,0.4-0.105c0.663-0.182,0.553-1.289-0.166-1.229
		c-0.072,0.008-0.146,0.008-0.219,0.014c0.135-0.123,0.268-0.246,0.404-0.349c1.938-1.469,3.987-2.801,6.057-4.08
		c0.113-0.049,0.23-0.094,0.343-0.144c1.475,0.757,3.138,0.029,3.886-1.338c2.104-0.531,4.38-0.955,6.424-1.698
		C83.683,179.143,78.442,182.94,70.782,181.18z M90.545,163.522c-1.328,0.005-2.84,0.474-4.364,1.129
		c-2.051,0.351-4.147,1.129-6.165,2.006c-1.646-3.082-4.392-6.003-6.23-7.968c-0.662-0.707-1.397-1.393-2.129-2.077
		c2.963-2.749,6.586-4.67,10.366-6.081c3.702-1.383,7.838-1.297,11.472-2.584C92.789,153.59,91.851,158.895,90.545,163.522z
		 M94.157,141.891c-0.076-0.037-0.143-0.096-0.222-0.127c-3.252-1.28-7.359-0.178-11.026,1.275
		c-1.644-2.726-4.776-4.916-7.293-6.635c0.053-0.052,0.107-0.098,0.15-0.171c0.182-0.306,0.396-0.563,0.586-0.856
		c0.457-0.023,0.903-0.115,1.283-0.347c0.965-0.587,1.639-1.53,2.443-2.319c1.23-1.211,3.099-1.943,4.647-2.638
		c3.218-1.442,6.862-2.61,10.391-3.073C94.898,132.031,94.605,137.047,94.157,141.891z M95.396,119.17
		c-1.467,0.069-3.882,0.502-6.601,1.252c-2.173-1.572-4.3-3.199-6.36-4.916c1.89-1.521,3.567-3.477,5.578-4.826
		c2.42-1.627,4.975-2.842,7.646-3.864C95.591,110.83,95.514,114.959,95.396,119.17z M95.798,99.086
		c-0.463,0.102-0.915,0.272-1.372,0.414c-1.115-1.312-2.274-2.553-3.471-3.734c-0.154-2.314-0.708-4.562-2.177-6.217
		c-0.632-0.712-1.411-0.724-2.049-0.381c2.578-4.323,5.021-8.197,7.146-11.357c1.307-0.06,1.979-1.343,1.643-2.399
		c0.272-0.389,0.556-0.799,0.813-1.161c0.088,0.07,0.173,0.141,0.262,0.211c0.041,0.039,0.08,0.079,0.121,0.118
		c-0.035,0.055-0.073,0.102-0.108,0.157c-0.541,0.854-0.198,1.673,0.444,2.114C96.232,82.117,95.971,89.979,95.798,99.086z
		 M100.659,69.258c-0.215-0.159-0.436-0.316-0.648-0.476c0.095-0.125,0.191-0.25,0.285-0.376c0.739-0.989-0.497-2.617-1.649-2.144
		c-0.348,0.143-0.704,0.317-1.059,0.486c-15.345-14.913,3.863-38.715,17.336-48.802c5.278-3.951,11.643-7.508,18.306-9.088
		c2.67-0.035,5.34,0.189,7.97,0.72c11.909,2.405,17.338,11.812,21.006,22.106c0.135,0.651,0.239,1.286,0.358,1.93
		c-6.104-3.097-13.045-3.312-18.469-0.935c-0.161,0.041-0.321,0.045-0.481,0.093c-1.889,0.56-3.281,1.696-4.327,3.146
		c-1.957,1.944-3.374,4.449-4.003,7.506c-3.893-2.34-8.612-4.265-12.131-1.541c-1.654,1.281-2.68,3.194-3.272,5.326
		c-3.021,2.702-4.416,6.67-2.74,11.21C111.186,60.105,105.546,63.589,100.659,69.258z M169.257,123.836
		c-2.888,13.002-14.742,18.553-26.521,21.367c0.7-2.921,0.505-5.723-0.409-8.236c0.449-3.905-1.295-7.174-4.847-9.801
		c1.961-2.354,2.978-5.304,2.14-8.854c-0.314-1.329-0.876-2.554-1.538-3.724c0.243-1.393,0.219-2.84-0.237-4.349
		c-1.517-5.019-8.002-6.515-13.195-6.442c0.841-2.185,1.374-4.549,1.54-6.961c1.09-3.487,1.472-7.105-0.422-10.064
		c-0.504-0.787-1.152-1.347-1.865-1.799c-2.486-4.38-6.716-5.55-10.963-4.516c-0.794-2.608-2.813-4.722-5.611-7.237
		c-0.287-0.258-0.603-0.421-0.921-0.561c0-0.014-0.001-0.032-0.001-0.046c-0.002-0.352-0.11-0.629-0.191-0.924
		c2.932-1.879,5.89-3.341,8.847-4.444c0.199-0.068,0.398-0.152,0.598-0.216c0.594-0.212,1.186-0.354,1.779-0.535
		c17.121-4.602,33.677,4.572,44.915,23.017C168.492,99.586,171.851,112.159,169.257,123.836z"/>
</g>
<g>
</g>
<g>
</g>
<g>
</g>
<g>
</g>
<g>
</g>
<g>
</g>
<g>
</g>
<g>
</g>
<g>
</g>
<g>
</g>
<g>
</g>
<g>
</g>
<g>
</g>
<g>
</g>
<g>
</g>
</svg>
